<svg width="375" height="667" viewBox="0 0 375 667" fill="none" xmlns="http://www.w3.org/2000/svg">
<rect width="375" height="667" fill="#54B6E9"/>
<rect x="35" y="359" width="43" height="20" rx="10" fill="white"/>
<path d="M137.118 318.686L130.798 339H127.822L123.053 324.413C122.997 324.253 122.94 324.079 122.884 323.891C122.837 323.703 122.79 323.501 122.743 323.285C122.696 323.501 122.644 323.703 122.588 323.891C122.541 324.079 122.489 324.253 122.433 324.413L117.622 339H114.645L108.325 318.686H111.09C111.373 318.686 111.608 318.756 111.796 318.897C111.993 319.029 112.125 319.212 112.191 319.447L116 332.468C116.075 332.751 116.145 333.056 116.211 333.385C116.277 333.715 116.343 334.058 116.409 334.415C116.475 334.058 116.545 333.715 116.62 333.385C116.705 333.047 116.794 332.741 116.888 332.468L121.248 319.447C121.313 319.259 121.445 319.085 121.643 318.925C121.84 318.766 122.075 318.686 122.348 318.686H123.307C123.599 318.686 123.834 318.761 124.013 318.911C124.191 319.052 124.328 319.231 124.422 319.447L128.767 332.468C128.861 332.741 128.945 333.037 129.021 333.357C129.105 333.667 129.181 333.997 129.246 334.345C129.312 333.997 129.373 333.667 129.43 333.357C129.496 333.037 129.566 332.741 129.641 332.468L133.436 319.447C133.493 319.241 133.62 319.062 133.817 318.911C134.024 318.761 134.264 318.686 134.537 318.686H137.118ZM147.088 330.183C147.088 329.675 147.013 329.205 146.862 328.772C146.721 328.33 146.509 327.949 146.227 327.63C145.945 327.3 145.592 327.047 145.169 326.868C144.755 326.68 144.276 326.586 143.73 326.586C142.63 326.586 141.765 326.901 141.135 327.531C140.504 328.161 140.105 329.045 139.935 330.183H147.088ZM139.851 332.045C139.888 332.863 140.015 333.573 140.232 334.175C140.448 334.768 140.735 335.262 141.092 335.657C141.459 336.052 141.892 336.348 142.39 336.545C142.898 336.733 143.462 336.827 144.083 336.827C144.675 336.827 145.188 336.762 145.621 336.63C146.053 336.489 146.429 336.338 146.749 336.179C147.069 336.009 147.342 335.859 147.567 335.727C147.793 335.586 148 335.516 148.188 335.516C148.433 335.516 148.621 335.61 148.752 335.798L149.613 336.912C149.256 337.335 148.851 337.693 148.4 337.984C147.948 338.276 147.469 338.516 146.961 338.704C146.453 338.882 145.931 339.009 145.395 339.085C144.859 339.169 144.337 339.212 143.829 339.212C142.832 339.212 141.906 339.047 141.05 338.718C140.203 338.379 139.465 337.886 138.835 337.237C138.214 336.588 137.725 335.784 137.368 334.824C137.02 333.865 136.846 332.76 136.846 331.509C136.846 330.512 137.001 329.581 137.311 328.716C137.631 327.851 138.083 327.098 138.666 326.459C139.258 325.819 139.973 325.316 140.81 324.949C141.657 324.573 142.611 324.385 143.674 324.385C144.558 324.385 145.376 324.531 146.128 324.822C146.881 325.104 147.53 325.523 148.075 326.078C148.621 326.633 149.044 327.315 149.345 328.123C149.655 328.923 149.81 329.835 149.81 330.86C149.81 331.33 149.759 331.645 149.655 331.805C149.552 331.965 149.364 332.045 149.091 332.045H139.851ZM160.327 332.708C159.246 332.746 158.334 332.835 157.591 332.976C156.848 333.108 156.246 333.282 155.785 333.498C155.324 333.705 154.99 333.954 154.783 334.246C154.586 334.537 154.487 334.857 154.487 335.205C154.487 335.544 154.539 335.835 154.642 336.08C154.755 336.315 154.906 336.512 155.094 336.672C155.291 336.823 155.517 336.936 155.771 337.011C156.034 337.077 156.321 337.11 156.631 337.11C157.421 337.11 158.098 336.964 158.663 336.672C159.236 336.371 159.791 335.939 160.327 335.374V332.708ZM152.286 326.614C153.913 325.1 155.851 324.343 158.098 324.343C158.926 324.343 159.66 324.479 160.299 324.752C160.948 325.015 161.489 325.391 161.921 325.88C162.364 326.369 162.697 326.952 162.923 327.63C163.158 328.297 163.276 329.04 163.276 329.859V339H161.921C161.63 339 161.409 338.958 161.258 338.873C161.108 338.779 160.981 338.596 160.878 338.323L160.581 337.152C160.215 337.481 159.852 337.777 159.495 338.041C159.138 338.295 158.766 338.511 158.381 338.69C158.004 338.868 157.595 339 157.153 339.085C156.721 339.179 156.241 339.226 155.714 339.226C155.131 339.226 154.586 339.146 154.078 338.986C153.579 338.826 153.147 338.586 152.78 338.266C152.413 337.937 152.122 337.533 151.905 337.053C151.698 336.574 151.595 336.009 151.595 335.36C151.595 334.805 151.741 334.265 152.032 333.738C152.333 333.211 152.822 332.741 153.499 332.327C154.186 331.904 155.084 331.556 156.194 331.283C157.313 331.011 158.691 330.855 160.327 330.818V329.859C160.327 328.824 160.106 328.053 159.664 327.545C159.222 327.037 158.573 326.783 157.718 326.783C157.134 326.783 156.645 326.858 156.25 327.009C155.855 327.15 155.512 327.305 155.221 327.474C154.929 327.644 154.67 327.804 154.445 327.954C154.219 328.095 153.979 328.166 153.725 328.166C153.518 328.166 153.34 328.114 153.189 328.01C153.048 327.898 152.931 327.761 152.836 327.601L152.286 326.614ZM171.249 339.226C170.055 339.226 169.133 338.892 168.484 338.224C167.844 337.547 167.525 336.597 167.525 335.374V326.995H165.945C165.775 326.995 165.63 326.943 165.507 326.84C165.385 326.727 165.324 326.562 165.324 326.346V325.119L167.652 324.78L168.315 320.618C168.362 320.458 168.442 320.331 168.555 320.237C168.667 320.134 168.818 320.082 169.006 320.082H170.558V324.808H174.55V326.995H170.558V335.163C170.558 335.68 170.685 336.075 170.939 336.348C171.193 336.621 171.531 336.757 171.954 336.757C172.189 336.757 172.392 336.729 172.561 336.672C172.73 336.606 172.876 336.541 172.998 336.475C173.121 336.4 173.224 336.334 173.309 336.277C173.403 336.211 173.492 336.179 173.577 336.179C173.746 336.179 173.882 336.273 173.986 336.461L174.889 337.942C174.418 338.356 173.864 338.676 173.224 338.901C172.584 339.118 171.926 339.226 171.249 339.226ZM179.974 326.318C180.566 325.735 181.215 325.269 181.921 324.921C182.626 324.564 183.449 324.385 184.389 324.385C185.179 324.385 185.871 324.517 186.463 324.78C187.065 325.043 187.568 325.415 187.973 325.894C188.386 326.374 188.697 326.952 188.904 327.63C189.111 328.297 189.214 329.036 189.214 329.844V339H186.195V329.844C186.195 328.876 185.969 328.123 185.518 327.587C185.076 327.051 184.399 326.783 183.487 326.783C182.809 326.783 182.179 326.938 181.596 327.249C181.022 327.559 180.482 327.982 179.974 328.518V339H176.941V318.121H179.974V326.318ZM202.194 330.183C202.194 329.675 202.119 329.205 201.968 328.772C201.827 328.33 201.616 327.949 201.333 327.63C201.051 327.3 200.699 327.047 200.275 326.868C199.862 326.68 199.382 326.586 198.837 326.586C197.736 326.586 196.871 326.901 196.241 327.531C195.611 328.161 195.211 329.045 195.042 330.183H202.194ZM194.957 332.045C194.995 332.863 195.122 333.573 195.338 334.175C195.554 334.768 195.841 335.262 196.198 335.657C196.565 336.052 196.998 336.348 197.496 336.545C198.004 336.733 198.568 336.827 199.189 336.827C199.782 336.827 200.294 336.762 200.727 336.63C201.159 336.489 201.536 336.338 201.855 336.179C202.175 336.009 202.448 335.859 202.674 335.727C202.899 335.586 203.106 335.516 203.294 335.516C203.539 335.516 203.727 335.61 203.859 335.798L204.719 336.912C204.362 337.335 203.957 337.693 203.506 337.984C203.055 338.276 202.575 338.516 202.067 338.704C201.559 338.882 201.037 339.009 200.501 339.085C199.965 339.169 199.443 339.212 198.935 339.212C197.938 339.212 197.012 339.047 196.156 338.718C195.31 338.379 194.571 337.886 193.941 337.237C193.321 336.588 192.832 335.784 192.474 334.824C192.126 333.865 191.952 332.76 191.952 331.509C191.952 330.512 192.107 329.581 192.418 328.716C192.737 327.851 193.189 327.098 193.772 326.459C194.365 325.819 195.079 325.316 195.916 324.949C196.763 324.573 197.717 324.385 198.78 324.385C199.664 324.385 200.482 324.531 201.235 324.822C201.987 325.104 202.636 325.523 203.182 326.078C203.727 326.633 204.15 327.315 204.451 328.123C204.762 328.923 204.917 329.835 204.917 330.86C204.917 331.33 204.865 331.645 204.762 331.805C204.658 331.965 204.47 332.045 204.197 332.045H194.957ZM210.609 327.277C211.06 326.365 211.606 325.65 212.245 325.133C212.885 324.606 213.651 324.343 214.545 324.343C214.855 324.343 215.147 324.38 215.42 324.455C215.692 324.521 215.937 324.625 216.153 324.766L215.941 327.051C215.904 327.211 215.843 327.324 215.758 327.39C215.683 327.446 215.579 327.474 215.448 327.474C215.307 327.474 215.104 327.451 214.841 327.404C214.578 327.347 214.3 327.319 214.009 327.319C213.586 327.319 213.209 327.38 212.88 327.503C212.56 327.625 212.269 327.804 212.006 328.039C211.752 328.274 211.526 328.561 211.328 328.899C211.131 329.238 210.948 329.623 210.778 330.056V339H207.745V324.611H209.509C209.828 324.611 210.049 324.672 210.172 324.794C210.294 324.907 210.379 325.109 210.426 325.401L210.609 327.277ZM232.269 332.708C231.187 332.746 230.275 332.835 229.532 332.976C228.789 333.108 228.187 333.282 227.726 333.498C227.265 333.705 226.931 333.954 226.724 334.246C226.527 334.537 226.428 334.857 226.428 335.205C226.428 335.544 226.48 335.835 226.583 336.08C226.696 336.315 226.847 336.512 227.035 336.672C227.232 336.823 227.458 336.936 227.712 337.011C227.975 337.077 228.262 337.11 228.572 337.11C229.362 337.11 230.04 336.964 230.604 336.672C231.178 336.371 231.733 335.939 232.269 335.374V332.708ZM224.227 326.614C225.855 325.1 227.792 324.343 230.04 324.343C230.867 324.343 231.601 324.479 232.24 324.752C232.889 325.015 233.43 325.391 233.863 325.88C234.305 326.369 234.639 326.952 234.864 327.63C235.099 328.297 235.217 329.04 235.217 329.859V339H233.863C233.571 339 233.35 338.958 233.2 338.873C233.049 338.779 232.922 338.596 232.819 338.323L232.523 337.152C232.156 337.481 231.794 337.777 231.436 338.041C231.079 338.295 230.707 338.511 230.322 338.69C229.946 338.868 229.536 339 229.094 339.085C228.662 339.179 228.182 339.226 227.656 339.226C227.072 339.226 226.527 339.146 226.019 338.986C225.521 338.826 225.088 338.586 224.721 338.266C224.354 337.937 224.063 337.533 223.847 337.053C223.64 336.574 223.536 336.009 223.536 335.36C223.536 334.805 223.682 334.265 223.974 333.738C224.274 333.211 224.764 332.741 225.441 332.327C226.127 331.904 227.025 331.556 228.135 331.283C229.254 331.011 230.632 330.855 232.269 330.818V329.859C232.269 328.824 232.048 328.053 231.606 327.545C231.164 327.037 230.515 326.783 229.659 326.783C229.076 326.783 228.587 326.858 228.192 327.009C227.797 327.15 227.453 327.305 227.162 327.474C226.87 327.644 226.612 327.804 226.386 327.954C226.16 328.095 225.92 328.166 225.666 328.166C225.46 328.166 225.281 328.114 225.13 328.01C224.989 327.898 224.872 327.761 224.778 327.601L224.227 326.614ZM241.803 335.389C242.226 335.934 242.687 336.32 243.186 336.545C243.693 336.762 244.253 336.87 244.864 336.87C246.049 336.87 246.971 336.437 247.629 335.572C248.297 334.707 248.631 333.418 248.631 331.707C248.631 330.823 248.556 330.07 248.405 329.449C248.255 328.819 248.038 328.307 247.756 327.912C247.474 327.517 247.131 327.23 246.726 327.051C246.322 326.873 245.866 326.783 245.358 326.783C244.587 326.783 243.919 326.952 243.355 327.291C242.8 327.62 242.283 328.095 241.803 328.716V335.389ZM241.648 326.699C242.25 325.993 242.932 325.424 243.693 324.992C244.465 324.559 245.358 324.343 246.374 324.343C247.183 324.343 247.916 324.507 248.575 324.836C249.233 325.156 249.797 325.626 250.267 326.247C250.738 326.868 251.1 327.639 251.354 328.561C251.617 329.473 251.749 330.522 251.749 331.707C251.749 332.769 251.603 333.762 251.311 334.683C251.029 335.595 250.62 336.39 250.084 337.067C249.548 337.735 248.899 338.262 248.137 338.647C247.375 339.024 246.515 339.212 245.556 339.212C244.709 339.212 243.99 339.075 243.397 338.802C242.814 338.53 242.283 338.154 241.803 337.674V343.782H238.77V324.611H240.604C241.018 324.611 241.281 324.803 241.394 325.189L241.648 326.699ZM257.729 335.389C258.152 335.934 258.613 336.32 259.111 336.545C259.619 336.762 260.179 336.87 260.79 336.87C261.975 336.87 262.897 336.437 263.555 335.572C264.223 334.707 264.557 333.418 264.557 331.707C264.557 330.823 264.481 330.07 264.331 329.449C264.18 328.819 263.964 328.307 263.682 327.912C263.4 327.517 263.057 327.23 262.652 327.051C262.248 326.873 261.792 326.783 261.284 326.783C260.513 326.783 259.845 326.952 259.281 327.291C258.726 327.62 258.208 328.095 257.729 328.716V335.389ZM257.574 326.699C258.175 325.993 258.857 325.424 259.619 324.992C260.39 324.559 261.284 324.343 262.299 324.343C263.108 324.343 263.842 324.507 264.5 324.836C265.159 325.156 265.723 325.626 266.193 326.247C266.663 326.868 267.025 327.639 267.279 328.561C267.543 329.473 267.674 330.522 267.674 331.707C267.674 332.769 267.529 333.762 267.237 334.683C266.955 335.595 266.546 336.39 266.01 337.067C265.474 337.735 264.825 338.262 264.063 338.647C263.301 339.024 262.441 339.212 261.481 339.212C260.635 339.212 259.915 339.075 259.323 338.802C258.74 338.53 258.208 338.154 257.729 337.674V343.782H254.696V324.611H256.53C256.943 324.611 257.207 324.803 257.32 325.189L257.574 326.699Z" fill="white"/>
<path d="M53.5247 372.637C53.7067 372.637 53.8812 372.709 54.0099 372.838C54.1385 372.966 54.2108 373.141 54.2108 373.323C54.2108 373.505 54.1385 373.679 54.0099 373.808C53.8812 373.936 53.7067 374.009 53.5247 374.009C53.3428 374.009 53.1683 373.936 53.0396 373.808C52.9109 373.679 52.8386 373.505 52.8386 373.323C52.8386 373.141 52.9109 372.966 53.0396 372.838C53.1683 372.709 53.3428 372.637 53.5247 372.637ZM59.3552 367.834C59.8101 367.834 60.2464 368.015 60.5681 368.336C60.8897 368.658 61.0704 369.094 61.0704 369.549C61.0704 370.004 60.8897 370.44 60.5681 370.762C60.2464 371.084 59.8101 371.264 59.3552 371.264L59.3195 371.263L59.2413 371.269L58.7322 371.268C58.8091 371.454 58.8516 371.658 58.8516 371.872C58.8542 372.087 58.8138 372.3 58.7328 372.499C58.6519 372.698 58.532 372.879 58.3802 373.031C58.2284 373.183 58.0478 373.303 57.8489 373.384C57.65 373.465 57.4369 373.506 57.2221 373.504C56.534 373.504 56.0283 373.199 55.7607 372.697C55.6996 372.582 55.6845 372.448 55.7184 372.322C55.7524 372.196 55.8329 372.088 55.9436 372.019C56.0544 371.95 56.1871 371.926 56.3151 371.951C56.443 371.976 56.5565 372.049 56.6328 372.155L56.7014 372.267C56.7947 372.4 56.9484 372.475 57.2228 372.475C57.3024 372.477 57.3816 372.463 57.4556 372.433C57.5296 372.404 57.5967 372.36 57.6529 372.303C57.7091 372.247 57.7531 372.179 57.7823 372.105C57.8114 372.031 57.8251 371.952 57.8225 371.872C57.8225 371.57 57.5741 371.313 57.2434 371.278L57.0959 371.269H50.6088C50.4784 371.269 50.3529 371.22 50.2577 371.131C50.1624 371.042 50.1045 370.92 50.0956 370.79C50.0867 370.66 50.1275 370.531 50.2098 370.43C50.2921 370.329 50.4097 370.263 50.5388 370.245L50.6088 370.24H59.2413L59.2742 370.241L59.3147 370.237L59.4355 370.23C59.553 370.216 59.665 370.172 59.7604 370.102C59.8557 370.032 59.9313 369.938 59.9798 369.83C60.0283 369.722 60.0479 369.603 60.0369 369.485C60.0258 369.367 59.9845 369.254 59.9168 369.157C59.8491 369.06 59.7575 368.982 59.6507 368.931C59.544 368.879 59.4258 368.857 59.3076 368.865C59.1895 368.873 59.0754 368.911 58.9765 368.976C58.8776 369.041 58.7972 369.131 58.7432 369.236L58.6814 369.378C58.6206 369.494 58.5182 369.582 58.395 369.625C58.2717 369.667 58.1367 369.662 58.0175 369.609C57.8982 369.556 57.8035 369.46 57.7525 369.34C57.7015 369.219 57.6981 369.084 57.7429 368.962C57.8636 368.631 58.083 368.346 58.3714 368.144C58.6598 367.942 59.0032 367.834 59.3552 367.834ZM55.2386 364.4C55.8507 364.398 56.4403 364.631 56.887 365.049C57.3336 365.468 57.6036 366.041 57.6417 366.652C57.6798 367.263 57.4831 367.865 57.092 368.336C56.7008 368.807 56.1446 369.11 55.5371 369.185L55.4684 369.199L55.3978 369.203H50.6088C50.4784 369.203 50.3529 369.153 50.2577 369.064C50.1624 368.975 50.1045 368.853 50.0956 368.723C50.0867 368.593 50.1275 368.464 50.2098 368.363C50.2921 368.262 50.4097 368.196 50.5388 368.178L50.6088 368.173H55.2393C55.5107 368.173 55.776 368.093 56.0016 367.942C56.2273 367.791 56.4032 367.577 56.507 367.326C56.6109 367.076 56.6381 366.8 56.5851 366.534C56.5322 366.267 56.4015 366.023 56.2096 365.831C56.0177 365.639 55.7732 365.508 55.507 365.455C55.2408 365.403 54.9649 365.43 54.7142 365.534C54.4634 365.637 54.2491 365.813 54.0984 366.039C53.9476 366.265 53.8671 366.53 53.8671 366.801C53.8671 366.938 53.8129 367.069 53.7164 367.165C53.6199 367.262 53.489 367.316 53.3525 367.316C53.216 367.316 53.0852 367.262 52.9887 367.165C52.8922 367.069 52.8379 366.938 52.8379 366.801C52.8379 366.164 53.0909 365.554 53.5413 365.103C53.9916 364.653 54.6017 364.4 55.2386 364.4ZM50.7803 364.403C50.9623 364.403 51.1368 364.476 51.2655 364.604C51.3942 364.733 51.4664 364.908 51.4664 365.089C51.4664 365.271 51.3942 365.446 51.2655 365.575C51.1368 365.703 50.9623 365.776 50.7803 365.776C50.5984 365.776 50.4239 365.703 50.2952 365.575C50.1665 365.446 50.0942 365.271 50.0942 365.089C50.0942 364.908 50.1665 364.733 50.2952 364.604C50.4239 364.476 50.5984 364.403 50.7803 364.403ZM60.3857 363.717C60.5677 363.717 60.7422 363.79 60.8709 363.918C60.9995 364.047 61.0718 364.221 61.0718 364.403C61.0718 364.585 60.9995 364.76 60.8709 364.889C60.7422 365.017 60.5677 365.089 60.3857 365.089C60.2038 365.089 60.0292 365.017 59.9006 364.889C59.7719 364.76 59.6996 364.585 59.6996 364.403C59.6996 364.221 59.7719 364.047 59.9006 363.918C60.0292 363.79 60.2038 363.717 60.3857 363.717Z" fill="#54B6E9"/>
<path d="M124.74 371.78C124.646 371.78 124.552 371.76 124.466 371.722C123.977 371.508 123.561 371.156 123.269 370.709C122.977 370.263 122.821 369.74 122.821 369.207C122.821 368.598 123.024 368.007 123.397 367.526C123.769 367.045 124.291 366.701 124.88 366.549L124.879 366.462C124.879 364.192 126.725 362.346 128.996 362.346C129.968 362.344 130.909 362.689 131.651 363.317C132.392 363.946 132.887 364.818 133.045 365.777C133.075 365.956 133.033 366.14 132.927 366.289C132.822 366.437 132.662 366.537 132.482 366.567C132.303 366.596 132.12 366.553 131.972 366.448C131.824 366.343 131.723 366.183 131.692 366.005C131.587 365.366 131.258 364.785 130.764 364.366C130.27 363.947 129.643 363.717 128.996 363.718C128.588 363.718 128.185 363.809 127.817 363.984C127.449 364.159 127.125 364.414 126.867 364.73C126.61 365.046 126.426 365.416 126.329 365.812C126.232 366.208 126.224 366.62 126.307 367.019L126.484 367.891L125.503 367.83C124.808 367.834 124.193 368.45 124.193 369.207C124.193 369.752 124.516 370.246 125.016 370.465C125.161 370.528 125.279 370.639 125.351 370.779C125.423 370.919 125.445 371.08 125.412 371.234C125.38 371.389 125.296 371.527 125.173 371.626C125.051 371.726 124.898 371.78 124.74 371.78ZM134.484 365.776C134.302 365.776 134.128 365.848 133.999 365.977C133.871 366.106 133.798 366.28 133.798 366.462C133.798 366.644 133.871 366.819 133.999 366.947C134.128 367.076 134.302 367.148 134.484 367.148C134.666 367.148 134.841 367.221 134.97 367.349C135.098 367.478 135.17 367.653 135.17 367.834C135.17 368.016 135.098 368.191 134.97 368.32C134.841 368.448 134.666 368.521 134.484 368.521H127.898C127.716 368.521 127.541 368.593 127.413 368.722C127.284 368.85 127.212 369.025 127.212 369.207C127.212 369.389 127.284 369.563 127.413 369.692C127.541 369.821 127.716 369.893 127.898 369.893H131.054C131.236 369.893 131.41 369.965 131.539 370.094C131.668 370.222 131.74 370.397 131.74 370.579C131.74 370.761 131.668 370.935 131.539 371.064C131.41 371.193 131.236 371.265 131.054 371.265H127.623C126.489 371.265 125.565 372.188 125.565 373.323C125.565 374.458 126.489 375.382 127.623 375.382C127.805 375.382 127.98 375.309 128.109 375.181C128.237 375.052 128.309 374.877 128.309 374.695C128.309 374.514 128.237 374.339 128.109 374.21C127.98 374.082 127.805 374.009 127.623 374.009C127.441 374.009 127.267 373.937 127.138 373.808C127.01 373.68 126.937 373.505 126.937 373.323C126.937 373.141 127.01 372.967 127.138 372.838C127.267 372.709 127.441 372.637 127.623 372.637H131.054C132.189 372.637 133.112 371.714 133.112 370.579C133.112 370.337 133.063 370.108 132.985 369.893H134.484C135.619 369.893 136.543 368.969 136.543 367.834C136.543 366.7 135.619 365.776 134.484 365.776Z" fill="#54B6E9"/>
<path d="M208.583 373.323C208.401 373.323 208.227 373.25 208.098 373.122C207.969 372.993 207.897 372.819 207.897 372.637C207.897 372.455 207.969 372.28 208.098 372.151C208.227 372.023 208.401 371.95 208.583 371.95C209.718 371.95 210.641 371.027 210.641 369.892C210.641 368.757 209.718 367.834 208.583 367.834C208.42 367.834 208.243 367.863 208.025 367.924L207.29 368.13L207.163 367.377C207.058 366.738 206.729 366.157 206.235 365.738C205.741 365.319 205.114 365.089 204.466 365.089C204.059 365.09 203.657 365.181 203.29 365.356C202.922 365.531 202.598 365.786 202.341 366.101C202.084 366.417 201.9 366.785 201.802 367.181C201.705 367.576 201.697 367.988 201.778 368.387L201.957 369.238L200.971 369.202C200.278 369.206 199.664 369.822 199.664 370.578C199.664 371.335 200.278 371.95 201.036 371.95C201.218 371.95 201.392 372.023 201.521 372.151C201.65 372.28 201.722 372.455 201.722 372.637C201.722 372.819 201.65 372.993 201.521 373.122C201.392 373.25 201.218 373.323 201.036 373.323C199.523 373.323 198.292 372.092 198.292 370.578C198.292 369.97 198.495 369.379 198.868 368.898C199.24 368.417 199.762 368.073 200.351 367.92L200.35 367.834C200.35 365.564 202.196 363.717 204.466 363.717C205.319 363.716 206.15 363.98 206.845 364.474C207.54 364.968 208.063 365.666 208.342 366.472C210.349 366.307 212.013 367.921 212.013 369.892C212.013 371.784 210.475 373.323 208.583 373.323ZM205.591 370.578L202.503 373.358L204.562 374.352L203.533 376.753L206.62 373.974L204.562 372.98L205.591 370.578Z" fill="#54B6E9"/>
<path d="M92.6323 363.718L91.9462 365.731L91.2601 363.718C91.2231 363.609 91.2126 363.492 91.2295 363.378C91.2464 363.265 91.2902 363.156 91.3573 363.063C91.4243 362.969 91.5127 362.893 91.6152 362.84C91.7176 362.788 91.831 362.76 91.9462 362.76C92.0613 362.76 92.1748 362.788 92.2772 362.84C92.3796 362.893 92.468 362.969 92.5351 363.063C92.6021 363.156 92.6459 363.265 92.6628 363.378C92.6797 363.492 92.6693 363.609 92.6323 363.718ZM86.4574 368.52L88.4704 369.206L86.4574 369.892C86.3484 369.929 86.2321 369.94 86.1182 369.923C86.0043 369.906 85.8961 369.862 85.8025 369.795C85.7089 369.728 85.6327 369.64 85.5801 369.537C85.5275 369.435 85.5001 369.321 85.5001 369.206C85.5001 369.091 85.5275 368.978 85.5801 368.875C85.6327 368.773 85.7089 368.685 85.8025 368.617C85.8961 368.55 86.0043 368.507 86.1182 368.49C86.2321 368.473 86.3484 368.483 86.4574 368.52ZM91.2601 374.695L91.9462 372.682L92.6323 374.695C92.6693 374.804 92.6797 374.92 92.6628 375.034C92.6459 375.148 92.6021 375.256 92.5351 375.35C92.468 375.444 92.3796 375.52 92.2772 375.572C92.1748 375.625 92.0613 375.652 91.9462 375.652C91.831 375.652 91.7176 375.625 91.6152 375.572C91.5127 375.52 91.4243 375.444 91.3573 375.35C91.2902 375.256 91.2464 375.148 91.2295 375.034C91.2126 374.92 91.2231 374.804 91.2601 374.695ZM97.435 369.891L95.422 369.205L97.435 368.519C97.544 368.482 97.6603 368.471 97.7741 368.488C97.888 368.505 97.9962 368.549 98.0898 368.616C98.1834 368.683 98.2597 368.772 98.3123 368.874C98.3649 368.976 98.3923 369.09 98.3923 369.205C98.3923 369.32 98.3649 369.434 98.3123 369.536C98.2597 369.638 98.1834 369.727 98.0898 369.794C97.9962 369.861 97.888 369.905 97.7741 369.922C97.6603 369.939 97.544 369.928 97.435 369.891ZM88.55 364.84L89.4879 366.748L87.5798 365.81C87.4762 365.759 87.3861 365.685 87.3171 365.592C87.2481 365.5 87.2022 365.392 87.1832 365.278C87.1643 365.164 87.1727 365.047 87.208 364.937C87.2432 364.828 87.3042 364.728 87.3858 364.646C87.4674 364.564 87.5673 364.503 87.6773 364.468C87.7872 364.433 87.904 364.424 88.0178 364.443C88.1317 364.462 88.2394 364.508 88.3319 364.577C88.4245 364.646 88.4993 364.736 88.55 364.84ZM87.5798 372.602L89.4879 371.664L88.55 373.572C88.4993 373.676 88.4245 373.766 88.3319 373.835C88.2394 373.904 88.1317 373.95 88.0178 373.969C87.904 373.988 87.7872 373.979 87.6773 373.944C87.5673 373.909 87.4674 373.848 87.3858 373.766C87.3042 373.684 87.2432 373.585 87.208 373.475C87.1727 373.365 87.1643 373.248 87.1832 373.134C87.2022 373.02 87.2481 372.912 87.3171 372.82C87.3861 372.727 87.4762 372.653 87.5798 372.602ZM95.3417 373.572L94.4038 371.664L96.3118 372.602C96.4155 372.653 96.5056 372.727 96.5746 372.82C96.6436 372.912 96.6894 373.02 96.7084 373.134C96.7274 373.248 96.7189 373.365 96.6837 373.475C96.6485 373.585 96.5875 373.684 96.5059 373.766C96.4243 373.848 96.3243 373.909 96.2144 373.944C96.1045 373.979 95.9877 373.988 95.8738 373.969C95.76 373.95 95.6523 373.904 95.5597 373.835C95.4672 373.766 95.3924 373.676 95.3417 373.572ZM96.3111 365.809L94.4024 366.747L95.341 364.839C95.3917 364.735 95.4665 364.645 95.559 364.576C95.6516 364.507 95.7593 364.461 95.8732 364.442C95.987 364.423 96.1038 364.432 96.2137 364.467C96.3236 364.502 96.4236 364.563 96.5052 364.645C96.5868 364.726 96.6478 364.826 96.683 364.936C96.7182 365.046 96.7267 365.163 96.7077 365.277C96.6888 365.391 96.6429 365.498 96.5739 365.591C96.5049 365.683 96.4148 365.758 96.3111 365.809ZM91.9462 372.294C90.244 372.294 88.8587 370.909 88.8587 369.206C88.8587 367.504 90.244 366.119 91.9462 366.119C93.6484 366.119 95.0336 367.504 95.0336 369.206C95.0336 370.909 93.6484 372.294 91.9462 372.294ZM91.9462 367.491C91 367.491 90.2309 368.26 90.2309 369.206C90.2309 370.152 91 370.922 91.9462 370.922C92.8923 370.922 93.6614 370.152 93.6614 369.206C93.6614 368.26 92.8923 367.491 91.9462 367.491Z" fill="#54B6E9"/>
<g clip-path="url(#clip0_524_1655)">
<path d="M244.946 376.067C244.764 376.067 244.59 375.995 244.461 375.866C244.332 375.737 244.26 375.563 244.26 375.381V371.264C244.26 371.082 244.332 370.908 244.461 370.779C244.59 370.651 244.764 370.578 244.946 370.578C245.128 370.578 245.303 370.651 245.431 370.779C245.56 370.908 245.632 371.082 245.632 371.264V375.381C245.632 375.563 245.56 375.737 245.431 375.866C245.303 375.995 245.128 376.067 244.946 376.067ZM240.83 376.067C240.648 376.067 240.473 375.995 240.344 375.866C240.216 375.737 240.143 375.563 240.143 375.381V371.264C240.143 371.082 240.216 370.908 240.344 370.779C240.473 370.651 240.648 370.578 240.83 370.578C241.012 370.578 241.186 370.651 241.315 370.779C241.443 370.908 241.516 371.082 241.516 371.264V375.381C241.516 375.563 241.443 375.737 241.315 375.866C241.186 375.995 241.012 376.067 240.83 376.067ZM242.888 377.439C242.706 377.439 242.531 377.367 242.403 377.238C242.274 377.11 242.202 376.935 242.202 376.753V372.637C242.202 372.455 242.274 372.28 242.403 372.151C242.531 372.023 242.706 371.95 242.888 371.95C243.07 371.95 243.244 372.023 243.373 372.151C243.502 372.28 243.574 372.455 243.574 372.637V376.753C243.574 376.935 243.502 377.11 243.373 377.238C243.244 377.367 243.07 377.439 242.888 377.439ZM238.771 373.323C237.258 373.323 236.027 372.092 236.027 370.578C236.028 369.97 236.23 369.379 236.603 368.898C236.975 368.417 237.497 368.073 238.086 367.92L238.085 367.834C238.085 365.564 239.931 363.717 242.202 363.717C243.054 363.716 243.886 363.981 244.581 364.474C245.276 364.968 245.799 365.667 246.078 366.472C248.093 366.305 249.749 367.922 249.749 369.892C249.748 370.642 249.501 371.371 249.047 371.968C248.593 372.565 247.956 372.997 247.234 373.198C247.146 373.226 247.054 373.235 246.962 373.226C246.871 373.216 246.782 373.189 246.702 373.145C246.621 373.101 246.55 373.041 246.493 372.969C246.436 372.897 246.394 372.814 246.37 372.726C246.345 372.637 246.339 372.544 246.351 372.453C246.363 372.362 246.393 372.275 246.44 372.195C246.486 372.116 246.548 372.047 246.622 371.992C246.695 371.938 246.779 371.898 246.869 371.876C247.302 371.755 247.684 371.496 247.956 371.138C248.228 370.779 248.376 370.342 248.377 369.892C248.377 368.757 247.453 367.834 246.318 367.834C246.152 367.834 245.976 367.862 245.762 367.923L245.025 368.133L244.898 367.377C244.793 366.738 244.464 366.157 243.97 365.738C243.476 365.319 242.849 365.089 242.202 365.089C241.794 365.09 241.392 365.181 241.025 365.356C240.657 365.531 240.332 365.785 240.075 366.101C239.818 366.417 239.634 366.786 239.537 367.182C239.44 367.577 239.432 367.989 239.514 368.388L239.684 369.213L238.708 369.202C238.014 369.206 237.399 369.822 237.399 370.578C237.399 371.335 238.014 371.95 238.771 371.95C238.953 371.95 239.128 372.023 239.256 372.151C239.385 372.28 239.457 372.455 239.457 372.637C239.457 372.819 239.385 372.993 239.256 373.122C239.128 373.25 238.953 373.323 238.771 373.323Z" fill="#54B6E9"/>
</g>
<g clip-path="url(#clip1_524_1655)">
<path d="M282.339 363.032L281.652 365.09L280.966 363.032C280.931 362.923 280.921 362.808 280.939 362.695C280.956 362.582 281 362.475 281.067 362.382C281.134 362.29 281.222 362.214 281.324 362.162C281.426 362.11 281.538 362.083 281.652 362.083C281.767 362.083 281.879 362.11 281.981 362.162C282.083 362.214 282.171 362.29 282.238 362.382C282.305 362.475 282.349 362.582 282.366 362.695C282.384 362.808 282.374 362.923 282.339 363.032ZM286.019 365.124L284.078 366.095L285.049 364.154C285.139 363.99 285.289 363.867 285.468 363.81C285.646 363.754 285.84 363.77 286.008 363.854C286.175 363.938 286.304 364.083 286.366 364.26C286.429 364.437 286.42 364.631 286.343 364.801C286.273 364.941 286.159 365.055 286.019 365.124ZM287.141 369.207L285.083 368.521L287.141 367.834C287.25 367.798 287.366 367.788 287.479 367.806C287.592 367.823 287.7 367.867 287.793 367.934C287.886 368.001 287.961 368.089 288.013 368.191C288.066 368.293 288.093 368.406 288.093 368.521C288.093 368.635 288.066 368.748 288.013 368.85C287.961 368.952 287.886 369.04 287.793 369.107C287.7 369.174 287.592 369.218 287.479 369.235C287.366 369.253 287.25 369.243 287.141 369.207ZM278.256 364.154L279.227 366.095L277.286 365.124C277.183 365.073 277.094 364.999 277.026 364.906C276.957 364.814 276.912 364.706 276.894 364.593C276.875 364.48 276.884 364.363 276.919 364.254C276.954 364.145 277.015 364.045 277.096 363.964C277.177 363.883 277.277 363.822 277.386 363.787C277.495 363.752 277.612 363.743 277.725 363.762C277.838 363.78 277.946 363.826 278.038 363.894C278.13 363.962 278.205 364.051 278.256 364.154ZM284.586 369.441C284.682 369.15 284.74 368.844 284.74 368.521C284.74 366.818 283.355 365.433 281.652 365.433C280.733 365.433 279.912 365.841 279.349 366.481L279.251 366.462C278.672 366.463 278.099 366.586 277.57 366.824C277.042 367.061 276.57 367.409 276.185 367.842C276.057 367.795 275.919 367.785 275.785 367.813C275.652 367.841 275.529 367.906 275.431 368.001C275.334 368.096 275.264 368.216 275.232 368.349C275.2 368.481 275.205 368.62 275.248 368.749C275.288 368.864 275.357 368.954 275.438 369.031C275.238 369.522 275.135 370.048 275.135 370.579L275.136 370.665C274.547 370.818 274.025 371.162 273.652 371.643C273.28 372.124 273.077 372.715 273.076 373.323C273.076 374.837 274.308 376.068 275.821 376.068H283.368C285.259 376.068 286.798 374.529 286.798 372.637C286.798 371.176 285.876 369.935 284.586 369.441ZM281.652 366.805C282.599 366.805 283.368 367.574 283.368 368.521C283.368 368.772 283.302 369.005 283.204 369.22C282.962 369.234 282.71 369.27 282.437 369.349C282.261 368.89 281.988 368.474 281.637 368.13C281.285 367.787 280.864 367.522 280.402 367.356C280.561 367.183 280.754 367.044 280.97 366.95C281.185 366.855 281.417 366.806 281.652 366.805ZM283.368 374.695H275.821C275.063 374.695 274.448 374.08 274.448 373.323C274.448 372.567 275.063 371.951 275.758 371.947L276.733 371.958L276.563 371.133C276.481 370.734 276.489 370.322 276.587 369.927C276.684 369.531 276.868 369.162 277.125 368.846C277.382 368.531 277.706 368.276 278.074 368.101C278.442 367.926 278.844 367.835 279.251 367.834L279.298 367.825C279.929 367.84 280.535 368.071 281.015 368.479C281.496 368.888 281.821 369.449 281.938 370.068L281.964 370.196C282.005 370.337 282.09 370.461 282.207 370.549C282.324 370.637 282.466 370.684 282.613 370.685L282.811 370.669C283.025 370.607 283.202 370.579 283.368 370.579C284.503 370.579 285.426 371.502 285.426 372.637C285.426 373.772 284.503 374.695 283.368 374.695Z" fill="#54B6E9"/>
</g>
<path d="M170.848 373.323C170.666 373.323 170.491 373.25 170.362 373.122C170.234 372.993 170.161 372.819 170.161 372.637C170.161 372.455 170.234 372.28 170.362 372.151C170.491 372.023 170.666 371.95 170.848 371.95C171.982 371.95 172.906 371.027 172.906 369.892C172.906 368.757 171.982 367.834 170.848 367.834C170.681 367.834 170.504 367.862 170.292 367.923L169.554 368.134L169.427 367.377C169.322 366.738 168.993 366.157 168.499 365.738C168.005 365.319 167.379 365.089 166.731 365.089C166.323 365.09 165.921 365.181 165.553 365.356C165.185 365.531 164.861 365.786 164.603 366.102C164.346 366.418 164.162 366.787 164.065 367.183C163.968 367.579 163.961 367.991 164.043 368.39L164.21 369.213L163.236 369.202C162.544 369.206 161.928 369.822 161.928 370.578C161.928 371.335 162.544 371.95 163.3 371.95C163.482 371.95 163.657 372.023 163.786 372.151C163.914 372.28 163.987 372.455 163.987 372.637C163.987 372.819 163.914 372.993 163.786 373.122C163.657 373.25 163.482 373.323 163.3 373.323C161.787 373.323 160.556 372.092 160.556 370.578C160.557 369.97 160.759 369.379 161.132 368.898C161.504 368.417 162.026 368.073 162.615 367.92L162.614 367.834C162.614 365.564 164.461 363.717 166.731 363.717C167.583 363.716 168.415 363.981 169.11 364.474C169.805 364.968 170.328 365.666 170.607 366.472C172.624 366.305 174.278 367.922 174.278 369.892C174.278 371.784 172.739 373.323 170.848 373.323ZM166.388 373.323L167.074 371.264L167.76 373.323C167.796 373.431 167.805 373.547 167.788 373.66C167.77 373.773 167.726 373.88 167.659 373.972C167.592 374.065 167.504 374.14 167.403 374.192C167.301 374.244 167.188 374.271 167.074 374.271C166.96 374.271 166.847 374.244 166.745 374.192C166.643 374.14 166.556 374.065 166.489 373.972C166.422 373.88 166.378 373.773 166.36 373.66C166.343 373.547 166.352 373.431 166.388 373.323ZM168.446 374.695L169.132 372.637L169.818 374.695C169.854 374.803 169.864 374.919 169.846 375.032C169.829 375.145 169.785 375.252 169.718 375.345C169.651 375.437 169.563 375.513 169.461 375.565C169.359 375.617 169.247 375.644 169.132 375.644C169.018 375.644 168.905 375.617 168.804 375.565C168.702 375.513 168.614 375.437 168.547 375.345C168.48 375.252 168.436 375.145 168.418 375.032C168.401 374.919 168.41 374.803 168.446 374.695ZM164.33 374.695L165.016 372.637L165.702 374.695C165.738 374.803 165.747 374.919 165.73 375.032C165.712 375.145 165.668 375.252 165.601 375.345C165.534 375.437 165.446 375.513 165.344 375.565C165.243 375.617 165.13 375.644 165.016 375.644C164.901 375.644 164.789 375.617 164.687 375.565C164.585 375.513 164.497 375.437 164.43 375.345C164.363 375.252 164.319 375.145 164.302 375.032C164.284 374.919 164.294 374.803 164.33 374.695Z" fill="#54B6E9"/>
<path d="M324.191 371.357L322.505 371.012L323.522 370.74C323.609 370.717 323.691 370.676 323.762 370.622C323.834 370.567 323.894 370.498 323.939 370.42C323.984 370.342 324.013 370.256 324.025 370.167C324.037 370.077 324.031 369.987 324.007 369.9C323.984 369.813 323.944 369.731 323.889 369.659C323.834 369.588 323.766 369.528 323.688 369.483C323.61 369.438 323.523 369.409 323.434 369.397C323.345 369.385 323.254 369.391 323.167 369.415L322.132 369.691C322.158 369.533 322.181 369.373 322.181 369.207C322.181 369.041 322.158 368.88 322.132 368.722L323.168 368.999L323.347 369.022C323.513 369.022 323.674 368.961 323.799 368.852C323.924 368.742 324.005 368.59 324.027 368.425C324.048 368.26 324.009 368.093 323.917 367.955C323.824 367.816 323.684 367.716 323.524 367.673L322.506 367.401L324.191 367.056C324.303 367.033 324.408 366.984 324.497 366.912C324.587 366.841 324.658 366.749 324.705 366.645C324.752 366.54 324.773 366.426 324.768 366.311C324.762 366.197 324.729 366.086 324.672 365.986C324.614 365.887 324.534 365.803 324.438 365.741C324.342 365.679 324.232 365.64 324.118 365.628C324.004 365.617 323.889 365.633 323.783 365.674C323.676 365.716 323.58 365.782 323.504 365.868L322.363 367.154L322.637 366.139C322.66 366.052 322.666 365.961 322.654 365.872C322.643 365.782 322.614 365.696 322.569 365.618C322.478 365.46 322.328 365.345 322.152 365.298C321.976 365.251 321.789 365.275 321.631 365.366C321.474 365.457 321.358 365.607 321.311 365.782L321.032 366.823C320.781 366.616 320.499 366.45 320.195 366.331L320.951 365.575C321.015 365.511 321.066 365.436 321.1 365.353C321.135 365.269 321.152 365.18 321.152 365.09C321.152 365 321.135 364.911 321.1 364.828C321.066 364.744 321.015 364.669 320.951 364.605C320.888 364.541 320.812 364.491 320.729 364.456C320.646 364.422 320.556 364.404 320.466 364.404C320.376 364.404 320.287 364.422 320.204 364.456C320.121 364.491 320.045 364.541 319.981 364.605L319.236 365.35L319.78 363.718C319.816 363.609 319.826 363.494 319.808 363.381C319.791 363.268 319.747 363.161 319.68 363.068C319.613 362.976 319.525 362.9 319.423 362.848C319.321 362.796 319.209 362.769 319.094 362.769C318.98 362.769 318.867 362.796 318.766 362.848C318.664 362.9 318.576 362.976 318.509 363.068C318.442 363.161 318.398 363.268 318.38 363.381C318.363 363.494 318.372 363.609 318.408 363.718L318.952 365.35L318.207 364.605C318.078 364.476 317.904 364.404 317.722 364.404C317.54 364.404 317.366 364.476 317.237 364.605C317.108 364.734 317.036 364.908 317.036 365.09C317.036 365.272 317.108 365.446 317.237 365.575L317.993 366.331C317.69 366.45 317.408 366.616 317.157 366.823L316.879 365.784C316.857 365.695 316.817 365.612 316.763 365.539C316.708 365.466 316.64 365.405 316.562 365.359C316.483 365.312 316.396 365.282 316.306 365.27C316.216 365.257 316.124 365.263 316.036 365.287C315.948 365.31 315.866 365.351 315.794 365.407C315.722 365.462 315.661 365.532 315.616 365.611C315.571 365.69 315.543 365.778 315.532 365.868C315.521 365.958 315.528 366.05 315.553 366.138L315.825 367.157L314.685 365.869C314.595 365.769 314.48 365.696 314.351 365.657C314.223 365.619 314.086 365.617 313.957 365.652C313.827 365.686 313.71 365.756 313.618 365.853C313.526 365.951 313.462 366.072 313.435 366.203C313.354 366.594 313.607 366.977 313.999 367.057L315.682 367.402L314.667 367.674C314.506 367.717 314.366 367.817 314.274 367.955C314.181 368.094 314.142 368.261 314.164 368.426C314.186 368.591 314.267 368.742 314.392 368.852C314.517 368.962 314.677 369.023 314.844 369.023L315.022 368.999L316.057 368.722C316.027 368.882 316.01 369.044 316.007 369.207C316.007 369.373 316.03 369.533 316.055 369.692L315.021 369.415C314.934 369.391 314.843 369.385 314.754 369.397C314.664 369.409 314.578 369.438 314.5 369.483C314.422 369.528 314.354 369.588 314.299 369.659C314.244 369.731 314.204 369.813 314.18 369.9C314.157 369.987 314.151 370.077 314.163 370.167C314.175 370.256 314.204 370.342 314.249 370.42C314.294 370.498 314.354 370.567 314.425 370.622C314.497 370.676 314.578 370.717 314.665 370.74L315.683 371.012L313.999 371.357C313.867 371.383 313.745 371.446 313.647 371.538C313.549 371.63 313.478 371.748 313.444 371.878C313.409 372.008 313.411 372.145 313.45 372.273C313.489 372.402 313.563 372.517 313.664 372.606C313.735 372.669 313.817 372.718 313.907 372.749C313.997 372.78 314.092 372.793 314.187 372.787C314.282 372.782 314.374 372.757 314.46 372.716C314.545 372.674 314.622 372.616 314.685 372.545L315.827 371.257L315.554 372.275C315.531 372.362 315.525 372.453 315.536 372.542C315.548 372.631 315.577 372.718 315.622 372.796C315.667 372.874 315.727 372.942 315.799 372.997C315.87 373.052 315.952 373.092 316.039 373.115L316.217 373.139C316.368 373.139 316.515 373.089 316.635 372.997C316.754 372.905 316.84 372.776 316.879 372.63L317.158 371.591C317.409 371.795 317.687 371.964 317.995 372.082L317.238 372.838C317.174 372.902 317.123 372.977 317.089 373.061C317.054 373.144 317.037 373.233 317.037 373.323C317.037 373.413 317.054 373.502 317.089 373.586C317.123 373.669 317.174 373.745 317.238 373.808C317.366 373.937 317.541 374.009 317.723 374.009C317.813 374.009 317.902 373.991 317.985 373.957C318.068 373.923 318.144 373.872 318.208 373.808L318.692 373.323H318.865L318.408 374.695C318.372 374.803 318.363 374.919 318.38 375.032C318.398 375.145 318.442 375.252 318.509 375.344C318.576 375.437 318.664 375.512 318.766 375.564C318.867 375.616 318.98 375.643 319.094 375.643C319.209 375.643 319.321 375.616 319.423 375.564C319.525 375.512 319.613 375.437 319.68 375.344C319.747 375.252 319.791 375.145 319.808 375.032C319.826 374.919 319.816 374.803 319.78 374.695L319.323 373.323H319.496L319.981 373.808C320.11 373.937 320.284 374.009 320.466 374.009C320.648 374.009 320.823 373.937 320.951 373.808C321.08 373.68 321.152 373.505 321.152 373.323C321.152 373.141 321.08 372.967 320.951 372.838L320.195 372.081C320.499 371.963 320.781 371.797 321.032 371.589L321.311 372.63C321.35 372.776 321.436 372.905 321.556 372.997C321.676 373.089 321.822 373.139 321.973 373.139L322.151 373.115C322.239 373.092 322.32 373.052 322.392 372.997C322.463 372.942 322.523 372.874 322.568 372.796C322.613 372.718 322.642 372.631 322.654 372.542C322.666 372.453 322.66 372.362 322.637 372.275L322.364 371.259L323.504 372.545C323.58 372.631 323.676 372.697 323.783 372.739C323.889 372.781 324.004 372.796 324.118 372.785C324.232 372.773 324.342 372.735 324.438 372.672C324.534 372.61 324.614 372.526 324.672 372.427C324.729 372.328 324.762 372.216 324.768 372.102C324.773 371.987 324.752 371.873 324.705 371.769C324.658 371.664 324.587 371.572 324.497 371.501C324.408 371.429 324.303 371.38 324.191 371.357ZM319.094 370.922C318.148 370.922 317.379 370.153 317.379 369.207C317.379 368.26 318.148 367.491 319.094 367.491C320.04 367.491 320.809 368.26 320.809 369.207C320.809 370.153 320.04 370.922 319.094 370.922Z" fill="#54B6E9"/>
<path d="M231.805 279.614C231.748 279.614 231.69 279.614 231.69 279.614C232.556 277.536 233.075 275.285 233.075 272.919C233.075 263.568 225.516 256.006 216.168 256.006C212.879 256.006 209.763 256.987 207.166 258.604C203.646 250.003 195.221 244 185.354 244C172.313 244 161.811 254.563 161.811 267.55C161.811 268.532 161.869 269.513 161.984 270.437C161.926 270.437 161.869 270.437 161.811 270.437C153.098 270.437 146 277.536 146 286.252C146 294.968 153.098 302.068 161.811 302.068H231.805C237.98 302.068 243 297.046 243 290.87C243 284.636 237.98 279.614 231.805 279.614Z" fill="white"/>
<defs>
<clipPath id="clip0_524_1655">
<rect width="16.4664" height="16.4664" fill="white" transform="translate(234.655 360.973)"/>
</clipPath>
<clipPath id="clip1_524_1655">
<rect width="16.4664" height="16.4664" fill="white" transform="translate(272.39 360.973)"/>
</clipPath>
</defs>
</svg>
